<svg width="42" height="43" viewBox="0 0 42 43" fill="none" xmlns="http://www.w3.org/2000/svg">
<g clip-path="url(#clip0)">
<rect width="1600" height="1200" transform="translate(-988.391 -750.788)" fill="url(#paint0_linear)"/>
<path d="M1002.45 -802.628C1013.53 -855.554 1019.35 -910.409 1019.35 -966.624C1019.35 -1406.71 662.591 -1763.46 222.509 -1763.46C-147.563 -1763.46 -458.712 -1511.19 -548.345 -1169.23C-614.932 -1049.77 -814.265 -810.855 -1078.9 -810.855H-1182.35C-1390.41 -810.855 -1579.84 -731.117 -1721.76 -600.535C-1880.02 -454.906 -1979.19 -246.042 -1979.19 -14.0148C-1979.19 426.068 -1622.44 782.825 -1182.35 782.825H1117.38C1557.47 782.825 1914.22 426.068 1914.22 -14.0148C1914.22 -454.098 1557.47 -810.855 1117.38 -810.855C1078.36 -810.855 1039.98 -808.049 1002.45 -802.628Z" fill="#F0F0F0"/>
<g filter="url(#filter0_dddd)">
<rect x="-926.687" y="-602.537" width="1476.59" height="903.499" rx="59" fill="url(#paint1_linear)"/>
</g>
<g filter="url(#filter1_d)">
<rect x="-0.226624" y="-67.0904" width="42.1416" height="43.4414" rx="3" fill="#DDF9E4"/>
</g>
<g filter="url(#filter2_ddd)">
<rect x="-0.226624" y="-0.347412" width="42.1416" height="43.4414" rx="3" fill="#E4F0FF"/>
</g>
<path d="M21.0697 20.9228L15.5607 26.4328L13.6907 25.6558L13.5237 25.8248L15.9037 27.4118L17.4917 29.7918L17.6597 29.6238L16.8837 27.7538L22.3927 22.2458L26.7207 28.4978L26.9307 28.2898L24.0437 20.5938L28.4437 16.1958C28.6098 16.0185 28.7004 15.7835 28.6965 15.5406C28.6925 15.2977 28.5942 15.0658 28.4224 14.894C28.2506 14.7222 28.0188 14.6239 27.7758 14.62C27.5329 14.616 27.298 14.7067 27.1207 14.8728L22.7207 19.2718L15.0267 16.3858L14.8167 16.5948L21.0697 20.9228ZM26.4597 31.4058L22.1297 25.1528L19.0897 28.1928L19.8667 30.0628L17.2007 32.7278L14.5557 28.7608L10.5877 26.1148L13.2537 23.4488L15.1227 24.2248L18.1627 21.1848L11.9097 16.8568L14.5557 14.2118L22.2507 17.0968L25.7977 13.5498C26.0571 13.2841 26.3666 13.0725 26.7084 12.9274C27.0501 12.7822 27.4173 12.7063 27.7886 12.7041C28.1599 12.7019 28.528 12.7734 28.8714 12.9145C29.2149 13.0555 29.527 13.2634 29.7895 13.5259C30.0521 13.7885 30.2599 14.1005 30.401 14.444C30.542 14.7875 30.6135 15.1555 30.6113 15.5268C30.6091 15.8981 30.5332 16.2653 30.388 16.6071C30.2429 16.9488 30.0313 17.2584 29.7657 17.5178L26.2187 21.0648L29.1047 28.7608L26.4587 31.4058H26.4597Z" fill="#70A6E8"/>
</g>
<defs>
<filter id="filter0_dddd" x="-958.687" y="-610.537" width="1540.59" height="967.499" filterUnits="userSpaceOnUse" color-interpolation-filters="sRGB">
<feFlood flood-opacity="0" result="BackgroundImageFix"/>
<feColorMatrix in="SourceAlpha" type="matrix" values="0 0 0 0 0 0 0 0 0 0 0 0 0 0 0 0 0 0 127 0"/>
<feOffset/>
<feGaussianBlur stdDeviation="0.5"/>
<feColorMatrix type="matrix" values="0 0 0 0 0 0 0 0 0 0 0 0 0 0 0 0 0 0 0.04 0"/>
<feBlend mode="normal" in2="BackgroundImageFix" result="effect1_dropShadow"/>
<feColorMatrix in="SourceAlpha" type="matrix" values="0 0 0 0 0 0 0 0 0 0 0 0 0 0 0 0 0 0 127 0"/>
<feOffset dy="4"/>
<feGaussianBlur stdDeviation="4"/>
<feColorMatrix type="matrix" values="0 0 0 0 0 0 0 0 0 0 0 0 0 0 0 0 0 0 0.04 0"/>
<feBlend mode="normal" in2="effect1_dropShadow" result="effect2_dropShadow"/>
<feColorMatrix in="SourceAlpha" type="matrix" values="0 0 0 0 0 0 0 0 0 0 0 0 0 0 0 0 0 0 127 0"/>
<feOffset dy="16"/>
<feGaussianBlur stdDeviation="12"/>
<feColorMatrix type="matrix" values="0 0 0 0 0 0 0 0 0 0 0 0 0 0 0 0 0 0 0.04 0"/>
<feBlend mode="normal" in2="effect2_dropShadow" result="effect3_dropShadow"/>
<feColorMatrix in="SourceAlpha" type="matrix" values="0 0 0 0 0 0 0 0 0 0 0 0 0 0 0 0 0 0 127 0"/>
<feOffset dy="24"/>
<feGaussianBlur stdDeviation="16"/>
<feColorMatrix type="matrix" values="0 0 0 0 0 0 0 0 0 0 0 0 0 0 0 0 0 0 0.04 0"/>
<feBlend mode="normal" in2="effect3_dropShadow" result="effect4_dropShadow"/>
<feBlend mode="normal" in="SourceGraphic" in2="effect4_dropShadow" result="shape"/>
</filter>
<filter id="filter1_d" x="-24.2266" y="-75.0904" width="90.1416" height="91.4414" filterUnits="userSpaceOnUse" color-interpolation-filters="sRGB">
<feFlood flood-opacity="0" result="BackgroundImageFix"/>
<feColorMatrix in="SourceAlpha" type="matrix" values="0 0 0 0 0 0 0 0 0 0 0 0 0 0 0 0 0 0 127 0"/>
<feOffset dy="16"/>
<feGaussianBlur stdDeviation="12"/>
<feColorMatrix type="matrix" values="0 0 0 0 0 0 0 0 0 0 0 0 0 0 0 0 0 0 0.06 0"/>
<feBlend mode="normal" in2="BackgroundImageFix" result="effect1_dropShadow"/>
<feBlend mode="normal" in="SourceGraphic" in2="effect1_dropShadow" result="shape"/>
</filter>
<filter id="filter2_ddd" x="-24.2266" y="-8.34741" width="90.1416" height="91.4414" filterUnits="userSpaceOnUse" color-interpolation-filters="sRGB">
<feFlood flood-opacity="0" result="BackgroundImageFix"/>
<feColorMatrix in="SourceAlpha" type="matrix" values="0 0 0 0 0 0 0 0 0 0 0 0 0 0 0 0 0 0 127 0"/>
<feOffset/>
<feGaussianBlur stdDeviation="0.5"/>
<feColorMatrix type="matrix" values="0 0 0 0 0 0 0 0 0 0 0 0 0 0 0 0 0 0 0.04 0"/>
<feBlend mode="normal" in2="BackgroundImageFix" result="effect1_dropShadow"/>
<feColorMatrix in="SourceAlpha" type="matrix" values="0 0 0 0 0 0 0 0 0 0 0 0 0 0 0 0 0 0 127 0"/>
<feOffset dy="2"/>
<feGaussianBlur stdDeviation="3"/>
<feColorMatrix type="matrix" values="0 0 0 0 0 0 0 0 0 0 0 0 0 0 0 0 0 0 0.04 0"/>
<feBlend mode="normal" in2="effect1_dropShadow" result="effect2_dropShadow"/>
<feColorMatrix in="SourceAlpha" type="matrix" values="0 0 0 0 0 0 0 0 0 0 0 0 0 0 0 0 0 0 127 0"/>
<feOffset dy="16"/>
<feGaussianBlur stdDeviation="12"/>
<feColorMatrix type="matrix" values="0 0 0 0 0 0 0 0 0 0 0 0 0 0 0 0 0 0 0.06 0"/>
<feBlend mode="normal" in2="effect2_dropShadow" result="effect3_dropShadow"/>
<feBlend mode="normal" in="SourceGraphic" in2="effect3_dropShadow" result="shape"/>
</filter>
<linearGradient id="paint0_linear" x1="800" y1="0" x2="800" y2="1200" gradientUnits="userSpaceOnUse">
<stop stop-color="#E6E6E6"/>
<stop offset="1" stop-color="#F0F0F0" stop-opacity="0"/>
</linearGradient>
<linearGradient id="paint1_linear" x1="-666.291" y1="-602.606" x2="396.875" y2="454.48" gradientUnits="userSpaceOnUse">
<stop stop-color="white"/>
<stop offset="0.685676" stop-color="white"/>
<stop offset="1" stop-color="white"/>
</linearGradient>
<clipPath id="clip0">
<rect width="1600" height="1200" fill="white" transform="translate(-988.391 -750.788)"/>
</clipPath>
</defs>
</svg>
