<svg width="42" height="44" viewBox="0 0 42 44" fill="none" xmlns="http://www.w3.org/2000/svg">
<g clip-path="url(#clip0)">
<rect width="1600" height="1200" transform="translate(-988.391 -616.788)" fill="url(#paint0_linear)"/>
<path d="M1002.45 -668.628C1013.53 -721.554 1019.35 -776.409 1019.35 -832.624C1019.35 -1272.71 662.591 -1629.46 222.509 -1629.46C-147.563 -1629.46 -458.712 -1377.19 -548.345 -1035.23C-614.932 -915.772 -814.265 -676.855 -1078.9 -676.855H-1182.35C-1390.41 -676.855 -1579.84 -597.117 -1721.76 -466.535C-1880.02 -320.906 -1979.19 -112.042 -1979.19 119.985C-1979.19 560.068 -1622.44 916.825 -1182.35 916.825H1117.38C1557.47 916.825 1914.22 560.068 1914.22 119.985C1914.22 -320.098 1557.47 -676.855 1117.38 -676.855C1078.36 -676.855 1039.98 -674.049 1002.45 -668.628Z" fill="#F0F0F0"/>
<g filter="url(#filter0_dddd)">
<rect x="-926.687" y="-468.537" width="1476.59" height="903.499" rx="59" fill="url(#paint1_linear)"/>
</g>
<g filter="url(#filter1_ddd)">
<rect x="-0.226624" y="0.166441" width="42.1416" height="43.4414" rx="3" fill="#FFEADA"/>
</g>
<path d="M17.0068 29.8556C17.4259 29.8556 17.7657 29.5159 17.7657 29.0967C17.7657 28.6776 17.4259 28.3378 17.0068 28.3378C16.5876 28.3378 16.2479 28.6776 16.2479 29.0967C16.2479 29.5159 16.5876 29.8556 17.0068 29.8556Z" stroke="#F8964C" stroke-width="2" stroke-linecap="round" stroke-linejoin="round"/>
<path d="M25.3534 29.8556C25.7725 29.8556 26.1123 29.5159 26.1123 29.0967C26.1123 28.6776 25.7725 28.3378 25.3534 28.3378C24.9343 28.3378 24.5945 28.6776 24.5945 29.0967C24.5945 29.5159 24.9343 29.8556 25.3534 29.8556Z" stroke="#F8964C" stroke-width="2" stroke-linecap="round" stroke-linejoin="round"/>
<path d="M10.9335 13.9184H13.9692L16.003 24.0802C16.0724 24.4296 16.2625 24.7434 16.54 24.9668C16.8175 25.1902 17.1647 25.3088 17.5208 25.302H24.8974C25.2536 25.3088 25.6008 25.1902 25.8783 24.9668C26.1558 24.7434 26.3458 24.4296 26.4152 24.0802L27.6295 17.7129H14.7281" stroke="#F8964C" stroke-width="2" stroke-linecap="round" stroke-linejoin="round"/>
</g>
<defs>
<filter id="filter0_dddd" x="-958.687" y="-476.537" width="1540.59" height="967.499" filterUnits="userSpaceOnUse" color-interpolation-filters="sRGB">
<feFlood flood-opacity="0" result="BackgroundImageFix"/>
<feColorMatrix in="SourceAlpha" type="matrix" values="0 0 0 0 0 0 0 0 0 0 0 0 0 0 0 0 0 0 127 0"/>
<feOffset/>
<feGaussianBlur stdDeviation="0.5"/>
<feColorMatrix type="matrix" values="0 0 0 0 0 0 0 0 0 0 0 0 0 0 0 0 0 0 0.04 0"/>
<feBlend mode="normal" in2="BackgroundImageFix" result="effect1_dropShadow"/>
<feColorMatrix in="SourceAlpha" type="matrix" values="0 0 0 0 0 0 0 0 0 0 0 0 0 0 0 0 0 0 127 0"/>
<feOffset dy="4"/>
<feGaussianBlur stdDeviation="4"/>
<feColorMatrix type="matrix" values="0 0 0 0 0 0 0 0 0 0 0 0 0 0 0 0 0 0 0.04 0"/>
<feBlend mode="normal" in2="effect1_dropShadow" result="effect2_dropShadow"/>
<feColorMatrix in="SourceAlpha" type="matrix" values="0 0 0 0 0 0 0 0 0 0 0 0 0 0 0 0 0 0 127 0"/>
<feOffset dy="16"/>
<feGaussianBlur stdDeviation="12"/>
<feColorMatrix type="matrix" values="0 0 0 0 0 0 0 0 0 0 0 0 0 0 0 0 0 0 0.04 0"/>
<feBlend mode="normal" in2="effect2_dropShadow" result="effect3_dropShadow"/>
<feColorMatrix in="SourceAlpha" type="matrix" values="0 0 0 0 0 0 0 0 0 0 0 0 0 0 0 0 0 0 127 0"/>
<feOffset dy="24"/>
<feGaussianBlur stdDeviation="16"/>
<feColorMatrix type="matrix" values="0 0 0 0 0 0 0 0 0 0 0 0 0 0 0 0 0 0 0.04 0"/>
<feBlend mode="normal" in2="effect3_dropShadow" result="effect4_dropShadow"/>
<feBlend mode="normal" in="SourceGraphic" in2="effect4_dropShadow" result="shape"/>
</filter>
<filter id="filter1_ddd" x="-24.2266" y="-7.83356" width="90.1416" height="91.4414" filterUnits="userSpaceOnUse" color-interpolation-filters="sRGB">
<feFlood flood-opacity="0" result="BackgroundImageFix"/>
<feColorMatrix in="SourceAlpha" type="matrix" values="0 0 0 0 0 0 0 0 0 0 0 0 0 0 0 0 0 0 127 0"/>
<feOffset/>
<feGaussianBlur stdDeviation="0.5"/>
<feColorMatrix type="matrix" values="0 0 0 0 0 0 0 0 0 0 0 0 0 0 0 0 0 0 0.04 0"/>
<feBlend mode="normal" in2="BackgroundImageFix" result="effect1_dropShadow"/>
<feColorMatrix in="SourceAlpha" type="matrix" values="0 0 0 0 0 0 0 0 0 0 0 0 0 0 0 0 0 0 127 0"/>
<feOffset dy="2"/>
<feGaussianBlur stdDeviation="3"/>
<feColorMatrix type="matrix" values="0 0 0 0 0 0 0 0 0 0 0 0 0 0 0 0 0 0 0.04 0"/>
<feBlend mode="normal" in2="effect1_dropShadow" result="effect2_dropShadow"/>
<feColorMatrix in="SourceAlpha" type="matrix" values="0 0 0 0 0 0 0 0 0 0 0 0 0 0 0 0 0 0 127 0"/>
<feOffset dy="16"/>
<feGaussianBlur stdDeviation="12"/>
<feColorMatrix type="matrix" values="0 0 0 0 0 0 0 0 0 0 0 0 0 0 0 0 0 0 0.06 0"/>
<feBlend mode="normal" in2="effect2_dropShadow" result="effect3_dropShadow"/>
<feBlend mode="normal" in="SourceGraphic" in2="effect3_dropShadow" result="shape"/>
</filter>
<linearGradient id="paint0_linear" x1="800" y1="0" x2="800" y2="1200" gradientUnits="userSpaceOnUse">
<stop stop-color="#E6E6E6"/>
<stop offset="1" stop-color="#F0F0F0" stop-opacity="0"/>
</linearGradient>
<linearGradient id="paint1_linear" x1="-666.291" y1="-468.606" x2="396.875" y2="588.48" gradientUnits="userSpaceOnUse">
<stop stop-color="white"/>
<stop offset="0.685676" stop-color="white"/>
<stop offset="1" stop-color="white"/>
</linearGradient>
<clipPath id="clip0">
<rect width="1600" height="1200" fill="white" transform="translate(-988.391 -616.788)"/>
</clipPath>
</defs>
</svg>
