<svg width="42" height="42" viewBox="0 0 42 42" fill="none" xmlns="http://www.w3.org/2000/svg">
<g clip-path="url(#clip0)">
<rect width="1600" height="1200" transform="translate(-988.391 -684.788)" fill="url(#paint0_linear)"/>
<path d="M1002.45 -736.628C1013.53 -789.554 1019.35 -844.409 1019.35 -900.624C1019.35 -1340.71 662.591 -1697.46 222.509 -1697.46C-147.563 -1697.46 -458.712 -1445.19 -548.345 -1103.23C-614.932 -983.772 -814.265 -744.855 -1078.9 -744.855H-1182.35C-1390.41 -744.855 -1579.84 -665.117 -1721.76 -534.535C-1880.02 -388.906 -1979.19 -180.042 -1979.19 51.9852C-1979.19 492.068 -1622.44 848.825 -1182.35 848.825H1117.38C1557.47 848.825 1914.22 492.068 1914.22 51.9852C1914.22 -388.098 1557.47 -744.855 1117.38 -744.855C1078.36 -744.855 1039.98 -742.049 1002.45 -736.628Z" fill="#F0F0F0"/>
<g filter="url(#filter0_dddd)">
<rect x="-926.687" y="-536.537" width="1476.59" height="903.499" rx="59" fill="url(#paint1_linear)"/>
</g>
<g filter="url(#filter1_d)">
<rect x="-0.226624" y="-67.8336" width="42.1416" height="43.4414" rx="3" fill="#FFEADA"/>
</g>
<g filter="url(#filter2_ddd)">
<rect x="-0.226624" y="-1.09037" width="42.1416" height="43.4414" rx="3" fill="#DDF9E4"/>
</g>
<path d="M22.4638 12.4887H12.8935C11.7889 12.4887 10.8935 13.3842 10.8935 14.4887V22.2497C10.8935 23.3543 11.7889 24.2497 12.8935 24.2497H22.4638C23.5684 24.2497 24.4638 23.3543 24.4638 22.2497V14.4887C24.4638 13.3842 23.5684 12.4887 22.4638 12.4887Z" stroke="#22A447" stroke-width="2" stroke-linecap="round" stroke-linejoin="round"/>
<path d="M24.4628 19.0131C24.4628 17.9086 25.3583 17.0131 26.4628 17.0131H27.2532C27.7836 17.0131 28.2923 17.2239 28.6674 17.5989L30.2099 19.1414C30.5849 19.5165 30.7957 20.0252 30.7957 20.5556V22.2507C30.7957 23.3552 29.9002 24.2507 28.7957 24.2507H26.4628C25.3583 24.2507 24.4628 23.3552 24.4628 22.2507V19.0131Z" stroke="#22A447" stroke-width="2" stroke-linecap="round" stroke-linejoin="round"/>
<path d="M14.9648 28.7719C16.2139 28.7719 17.2265 27.7593 17.2265 26.5102C17.2265 25.2611 16.2139 24.2485 14.9648 24.2485C13.7157 24.2485 12.7031 25.2611 12.7031 26.5102C12.7031 27.7593 13.7157 28.7719 14.9648 28.7719Z" stroke="#22A447" stroke-width="2" stroke-linecap="round" stroke-linejoin="round"/>
<path d="M26.7246 28.7719C27.9737 28.7719 28.9863 27.7593 28.9863 26.5102C28.9863 25.2611 27.9737 24.2485 26.7246 24.2485C25.4754 24.2485 24.4628 25.2611 24.4628 26.5102C24.4628 27.7593 25.4754 28.7719 26.7246 28.7719Z" stroke="#22A447" stroke-width="2" stroke-linecap="round" stroke-linejoin="round"/>
</g>
<defs>
<filter id="filter0_dddd" x="-958.687" y="-544.537" width="1540.59" height="967.499" filterUnits="userSpaceOnUse" color-interpolation-filters="sRGB">
<feFlood flood-opacity="0" result="BackgroundImageFix"/>
<feColorMatrix in="SourceAlpha" type="matrix" values="0 0 0 0 0 0 0 0 0 0 0 0 0 0 0 0 0 0 127 0"/>
<feOffset/>
<feGaussianBlur stdDeviation="0.5"/>
<feColorMatrix type="matrix" values="0 0 0 0 0 0 0 0 0 0 0 0 0 0 0 0 0 0 0.04 0"/>
<feBlend mode="normal" in2="BackgroundImageFix" result="effect1_dropShadow"/>
<feColorMatrix in="SourceAlpha" type="matrix" values="0 0 0 0 0 0 0 0 0 0 0 0 0 0 0 0 0 0 127 0"/>
<feOffset dy="4"/>
<feGaussianBlur stdDeviation="4"/>
<feColorMatrix type="matrix" values="0 0 0 0 0 0 0 0 0 0 0 0 0 0 0 0 0 0 0.04 0"/>
<feBlend mode="normal" in2="effect1_dropShadow" result="effect2_dropShadow"/>
<feColorMatrix in="SourceAlpha" type="matrix" values="0 0 0 0 0 0 0 0 0 0 0 0 0 0 0 0 0 0 127 0"/>
<feOffset dy="16"/>
<feGaussianBlur stdDeviation="12"/>
<feColorMatrix type="matrix" values="0 0 0 0 0 0 0 0 0 0 0 0 0 0 0 0 0 0 0.04 0"/>
<feBlend mode="normal" in2="effect2_dropShadow" result="effect3_dropShadow"/>
<feColorMatrix in="SourceAlpha" type="matrix" values="0 0 0 0 0 0 0 0 0 0 0 0 0 0 0 0 0 0 127 0"/>
<feOffset dy="24"/>
<feGaussianBlur stdDeviation="16"/>
<feColorMatrix type="matrix" values="0 0 0 0 0 0 0 0 0 0 0 0 0 0 0 0 0 0 0.04 0"/>
<feBlend mode="normal" in2="effect3_dropShadow" result="effect4_dropShadow"/>
<feBlend mode="normal" in="SourceGraphic" in2="effect4_dropShadow" result="shape"/>
</filter>
<filter id="filter1_d" x="-24.2266" y="-75.8336" width="90.1416" height="91.4414" filterUnits="userSpaceOnUse" color-interpolation-filters="sRGB">
<feFlood flood-opacity="0" result="BackgroundImageFix"/>
<feColorMatrix in="SourceAlpha" type="matrix" values="0 0 0 0 0 0 0 0 0 0 0 0 0 0 0 0 0 0 127 0"/>
<feOffset dy="16"/>
<feGaussianBlur stdDeviation="12"/>
<feColorMatrix type="matrix" values="0 0 0 0 0 0 0 0 0 0 0 0 0 0 0 0 0 0 0.06 0"/>
<feBlend mode="normal" in2="BackgroundImageFix" result="effect1_dropShadow"/>
<feBlend mode="normal" in="SourceGraphic" in2="effect1_dropShadow" result="shape"/>
</filter>
<filter id="filter2_ddd" x="-24.2266" y="-9.09037" width="90.1416" height="91.4414" filterUnits="userSpaceOnUse" color-interpolation-filters="sRGB">
<feFlood flood-opacity="0" result="BackgroundImageFix"/>
<feColorMatrix in="SourceAlpha" type="matrix" values="0 0 0 0 0 0 0 0 0 0 0 0 0 0 0 0 0 0 127 0"/>
<feOffset/>
<feGaussianBlur stdDeviation="0.5"/>
<feColorMatrix type="matrix" values="0 0 0 0 0 0 0 0 0 0 0 0 0 0 0 0 0 0 0.04 0"/>
<feBlend mode="normal" in2="BackgroundImageFix" result="effect1_dropShadow"/>
<feColorMatrix in="SourceAlpha" type="matrix" values="0 0 0 0 0 0 0 0 0 0 0 0 0 0 0 0 0 0 127 0"/>
<feOffset dy="2"/>
<feGaussianBlur stdDeviation="3"/>
<feColorMatrix type="matrix" values="0 0 0 0 0 0 0 0 0 0 0 0 0 0 0 0 0 0 0.04 0"/>
<feBlend mode="normal" in2="effect1_dropShadow" result="effect2_dropShadow"/>
<feColorMatrix in="SourceAlpha" type="matrix" values="0 0 0 0 0 0 0 0 0 0 0 0 0 0 0 0 0 0 127 0"/>
<feOffset dy="16"/>
<feGaussianBlur stdDeviation="12"/>
<feColorMatrix type="matrix" values="0 0 0 0 0 0 0 0 0 0 0 0 0 0 0 0 0 0 0.06 0"/>
<feBlend mode="normal" in2="effect2_dropShadow" result="effect3_dropShadow"/>
<feBlend mode="normal" in="SourceGraphic" in2="effect3_dropShadow" result="shape"/>
</filter>
<linearGradient id="paint0_linear" x1="800" y1="0" x2="800" y2="1200" gradientUnits="userSpaceOnUse">
<stop stop-color="#E6E6E6"/>
<stop offset="1" stop-color="#F0F0F0" stop-opacity="0"/>
</linearGradient>
<linearGradient id="paint1_linear" x1="-666.291" y1="-536.606" x2="396.875" y2="520.48" gradientUnits="userSpaceOnUse">
<stop stop-color="white"/>
<stop offset="0.685676" stop-color="white"/>
<stop offset="1" stop-color="white"/>
</linearGradient>
<clipPath id="clip0">
<rect width="1600" height="1200" fill="white" transform="translate(-988.391 -684.788)"/>
</clipPath>
</defs>
</svg>
